<mxfile host="drawio-plugin" modified="2021-11-05T13:15:24.821Z" agent="5.0 (Windows NT 6.2; Win64; x64) AppleWebKit/537.36 (KHTML, like Gecko) Chrome/89.0.4389.90 Safari/537.36" etag="3AhTrHSKEL5XOab0dHXC" version="14.7.4" type="embed"><diagram name="Page-1" id="c4acf3e9-155e-7222-9cf6-157b1a14988f"><mxGraphModel dx="2105" dy="453" grid="0" gridSize="10" guides="1" tooltips="1" connect="1" arrows="1" fold="1" page="1" pageScale="1" pageWidth="1100" pageHeight="850" background="#EEEEEE" math="0" shadow="1"><root><mxCell id="0"/><mxCell id="1" parent="0"/><mxCell id="5d2195bd80daf111-18" value="&lt;p style=&quot;margin: 0px ; margin-top: 4px ; text-align: center&quot;&gt;&lt;b&gt;Flight&lt;/b&gt;&lt;/p&gt;&lt;hr size=&quot;1&quot;&gt;&lt;p style=&quot;margin: 0px ; margin-left: 4px&quot;&gt;&lt;span&gt;- departureDate&lt;/span&gt;&lt;br&gt;&lt;/p&gt;&lt;p style=&quot;margin: 0px ; margin-left: 4px&quot;&gt;- time&lt;/p&gt;&lt;hr size=&quot;1&quot;&gt;&lt;p style=&quot;margin: 0px ; margin-left: 4px&quot;&gt;&lt;br&gt;&lt;/p&gt;" style="verticalAlign=top;align=left;overflow=fill;fontSize=12;fontFamily=Helvetica;html=1;shadow=0;comic=0;labelBackgroundColor=none;strokeWidth=1;fillColor=#F5AB50;strokeColor=#909090;fontColor=#1A1A1A;" parent="1" vertex="1"><mxGeometry x="-180" y="400" width="190" height="140" as="geometry"/></mxCell><mxCell id="1_HT6QxDU4kzS8ASd7at-2" value="&lt;p style=&quot;margin: 0px ; margin-top: 4px ; text-align: center&quot;&gt;&lt;b&gt;Customer&lt;/b&gt;&lt;/p&gt;&lt;hr size=&quot;1&quot;&gt;&lt;p style=&quot;margin: 0px ; margin-left: 4px&quot;&gt;- firstName&lt;br&gt;&lt;/p&gt;&lt;p style=&quot;margin: 0px ; margin-left: 4px&quot;&gt;- lastName&lt;/p&gt;&lt;p style=&quot;margin: 0px ; margin-left: 4px&quot;&gt;- dateOfBirth&lt;/p&gt;&lt;p style=&quot;margin: 0px ; margin-left: 4px&quot;&gt;- phoneNumber&lt;br&gt;&lt;/p&gt;&lt;p style=&quot;margin: 0px ; margin-left: 4px&quot;&gt;&lt;span&gt;- emailAddress&lt;/span&gt;&lt;/p&gt;&lt;p style=&quot;margin: 0px ; margin-left: 4px&quot;&gt;- nationality&lt;/p&gt;&lt;hr size=&quot;1&quot;&gt;&lt;p style=&quot;margin: 0px ; margin-left: 4px&quot;&gt;&lt;br&gt;&lt;/p&gt;" style="verticalAlign=top;align=left;overflow=fill;fontSize=12;fontFamily=Helvetica;html=1;shadow=0;comic=0;labelBackgroundColor=none;strokeWidth=1;fillColor=#F5AB50;strokeColor=#909090;fontColor=#1A1A1A;" parent="1" vertex="1"><mxGeometry x="650" y="400" width="190" height="140" as="geometry"/></mxCell><mxCell id="1_HT6QxDU4kzS8ASd7at-3" value="&lt;p style=&quot;margin: 0px ; margin-top: 4px ; text-align: center&quot;&gt;&lt;b&gt;Airport&lt;/b&gt;&lt;/p&gt;&lt;hr size=&quot;1&quot;&gt;&lt;p style=&quot;margin: 0px ; margin-left: 4px&quot;&gt;- airportName&lt;br&gt;&lt;/p&gt;&lt;p style=&quot;margin: 0px ; margin-left: 4px&quot;&gt;- city&lt;/p&gt;&lt;p style=&quot;margin: 0px ; margin-left: 4px&quot;&gt;- country&lt;/p&gt;&lt;p style=&quot;margin: 0px ; margin-left: 4px&quot;&gt;- latitude&lt;/p&gt;&lt;p style=&quot;margin: 0px ; margin-left: 4px&quot;&gt;- longitude&lt;/p&gt;&lt;hr size=&quot;1&quot;&gt;&lt;p style=&quot;margin: 0px ; margin-left: 4px&quot;&gt;&lt;br&gt;&lt;/p&gt;" style="verticalAlign=top;align=left;overflow=fill;fontSize=12;fontFamily=Helvetica;html=1;shadow=0;comic=0;labelBackgroundColor=none;strokeWidth=1;fillColor=#F5AB50;strokeColor=#909090;fontColor=#1A1A1A;" parent="1" vertex="1"><mxGeometry x="-480" y="620" width="190" height="140" as="geometry"/></mxCell><mxCell id="1_HT6QxDU4kzS8ASd7at-4" value="&lt;p style=&quot;margin: 0px ; margin-top: 4px ; text-align: center&quot;&gt;&lt;b&gt;FlightRoutes&lt;/b&gt;&lt;/p&gt;&lt;hr size=&quot;1&quot;&gt;&lt;p style=&quot;margin: 0px ; margin-left: 4px&quot;&gt;- arrivalLocation&lt;br&gt;&lt;/p&gt;&lt;p style=&quot;margin: 0px ; margin-left: 4px&quot;&gt;- departureLocation&lt;/p&gt;&lt;p style=&quot;margin: 0px ; margin-left: 4px&quot;&gt;- duration&lt;/p&gt;&lt;p style=&quot;margin: 0px ; margin-left: 4px&quot;&gt;- class&lt;/p&gt;&lt;hr size=&quot;1&quot;&gt;&lt;p style=&quot;margin: 0px ; margin-left: 4px&quot;&gt;&lt;br&gt;&lt;/p&gt;" style="verticalAlign=top;align=left;overflow=fill;fontSize=12;fontFamily=Helvetica;html=1;shadow=0;comic=0;labelBackgroundColor=none;strokeWidth=1;fillColor=#F5AB50;strokeColor=#909090;fontColor=#1A1A1A;" parent="1" vertex="1"><mxGeometry x="-180" y="620" width="190" height="140" as="geometry"/></mxCell><mxCell id="1_HT6QxDU4kzS8ASd7at-5" value="&lt;p style=&quot;margin: 0px ; margin-top: 4px ; text-align: center&quot;&gt;&lt;b&gt;&amp;lt;&amp;lt;ENUM&amp;gt;&amp;gt;&lt;/b&gt;&lt;/p&gt;&lt;p style=&quot;margin: 0px ; margin-top: 4px ; text-align: center&quot;&gt;&lt;b&gt;Class&lt;/b&gt;&lt;/p&gt;&lt;hr size=&quot;1&quot;&gt;&lt;p style=&quot;margin: 0px ; margin-left: 4px&quot;&gt;- ECONOMY&lt;/p&gt;&lt;p style=&quot;margin: 0px ; margin-left: 4px&quot;&gt;- BUSINESS&lt;/p&gt;&lt;p style=&quot;margin: 0px ; margin-left: 4px&quot;&gt;- FIRST&lt;/p&gt;&lt;hr size=&quot;1&quot;&gt;&lt;p style=&quot;margin: 0px ; margin-left: 4px&quot;&gt;&lt;br&gt;&lt;/p&gt;" style="verticalAlign=top;align=left;overflow=fill;fontSize=12;fontFamily=Helvetica;html=1;shadow=0;comic=0;labelBackgroundColor=none;strokeWidth=1;fillColor=#F5AB50;strokeColor=#909090;fontColor=#1A1A1A;" parent="1" vertex="1"><mxGeometry x="270" y="610" width="190" height="140" as="geometry"/></mxCell><mxCell id="1_HT6QxDU4kzS8ASd7at-6" value="&lt;p style=&quot;margin: 0px ; margin-top: 4px ; text-align: center&quot;&gt;&lt;b&gt;Booking&lt;/b&gt;&lt;/p&gt;&lt;p style=&quot;margin: 0px ; margin-left: 4px&quot;&gt;&lt;br&gt;&lt;/p&gt;" style="verticalAlign=top;align=left;overflow=fill;fontSize=12;fontFamily=Helvetica;html=1;shadow=0;comic=0;labelBackgroundColor=none;strokeWidth=1;fillColor=#F5AB50;strokeColor=#909090;fontColor=#1A1A1A;" parent="1" vertex="1"><mxGeometry x="270" y="450" width="190" height="40" as="geometry"/></mxCell><mxCell id="1_HT6QxDU4kzS8ASd7at-7" value="&lt;p style=&quot;margin: 0px ; margin-top: 4px ; text-align: center&quot;&gt;&lt;b&gt;Plane&lt;/b&gt;&lt;/p&gt;&lt;hr size=&quot;1&quot;&gt;&lt;p style=&quot;margin: 0px ; margin-left: 4px&quot;&gt;- planeType&lt;/p&gt;&lt;p style=&quot;margin: 0px ; margin-left: 4px&quot;&gt;- SeatsEcomony&lt;/p&gt;&lt;p style=&quot;margin: 0px ; margin-left: 4px&quot;&gt;- seatsBusiness&lt;/p&gt;&lt;p style=&quot;margin: 0px ; margin-left: 4px&quot;&gt;- seatsFirstclass&lt;/p&gt;&lt;p style=&quot;margin: 0px ; margin-left: 4px&quot;&gt;- inFlight&lt;/p&gt;&lt;hr size=&quot;1&quot;&gt;&lt;p style=&quot;margin: 0px ; margin-left: 4px&quot;&gt;&lt;br&gt;&lt;/p&gt;" style="verticalAlign=top;align=left;overflow=fill;fontSize=12;fontFamily=Helvetica;html=1;shadow=0;comic=0;labelBackgroundColor=none;strokeWidth=1;fillColor=#F5AB50;strokeColor=#909090;fontColor=#1A1A1A;" parent="1" vertex="1"><mxGeometry x="-480" y="400" width="190" height="140" as="geometry"/></mxCell><mxCell id="1_HT6QxDU4kzS8ASd7at-10" value="" style="endArrow=none;html=1;entryX=0;entryY=0.5;entryDx=0;entryDy=0;exitX=1;exitY=0.5;exitDx=0;exitDy=0;labelBackgroundColor=none;strokeColor=#182E3E;fontColor=#1A1A1A;" parent="1" source="1_HT6QxDU4kzS8ASd7at-6" target="1_HT6QxDU4kzS8ASd7at-2" edge="1"><mxGeometry width="50" height="50" relative="1" as="geometry"><mxPoint x="310" y="350" as="sourcePoint"/><mxPoint x="225" y="340" as="targetPoint"/></mxGeometry></mxCell><mxCell id="P5lX1wlj_v9exh4R8Un_-4" value="*." style="edgeLabel;html=1;align=center;verticalAlign=middle;resizable=0;points=[];labelBackgroundColor=none;fontSize=20;" parent="1_HT6QxDU4kzS8ASd7at-10" vertex="1" connectable="0"><mxGeometry x="-0.0831" y="1" relative="1" as="geometry"><mxPoint x="-77" y="1" as="offset"/></mxGeometry></mxCell><mxCell id="P5lX1wlj_v9exh4R8Un_-5" value="&lt;span style=&quot;&quot;&gt;.*&lt;/span&gt;" style="edgeLabel;html=1;align=center;verticalAlign=middle;resizable=0;points=[];fontSize=20;labelBackgroundColor=none;" parent="1_HT6QxDU4kzS8ASd7at-10" vertex="1" connectable="0"><mxGeometry x="0.2611" relative="1" as="geometry"><mxPoint x="60" as="offset"/></mxGeometry></mxCell><mxCell id="1_HT6QxDU4kzS8ASd7at-11" value="" style="endArrow=none;html=1;entryX=0;entryY=0.5;entryDx=0;entryDy=0;exitX=1;exitY=0.5;exitDx=0;exitDy=0;labelBackgroundColor=#EEEEEE;strokeColor=#182E3E;fontColor=#1A1A1A;" parent="1" source="5d2195bd80daf111-18" target="1_HT6QxDU4kzS8ASd7at-6" edge="1"><mxGeometry width="50" height="50" relative="1" as="geometry"><mxPoint x="20" y="430" as="sourcePoint"/><mxPoint x="70" y="380" as="targetPoint"/></mxGeometry></mxCell><mxCell id="1_HT6QxDU4kzS8ASd7at-13" value="" style="endArrow=none;html=1;entryX=0;entryY=0.5;entryDx=0;entryDy=0;exitX=1;exitY=0.5;exitDx=0;exitDy=0;labelBackgroundColor=#EEEEEE;strokeColor=#182E3E;fontColor=#1A1A1A;" parent="1" source="1_HT6QxDU4kzS8ASd7at-7" target="5d2195bd80daf111-18" edge="1"><mxGeometry width="50" height="50" relative="1" as="geometry"><mxPoint x="-430" y="510" as="sourcePoint"/><mxPoint x="-380" y="460" as="targetPoint"/></mxGeometry></mxCell><mxCell id="1_HT6QxDU4kzS8ASd7at-14" value="" style="endArrow=none;html=1;entryX=0.5;entryY=1;entryDx=0;entryDy=0;labelBackgroundColor=#EEEEEE;strokeColor=#182E3E;fontColor=#1A1A1A;" parent="1" source="1_HT6QxDU4kzS8ASd7at-4" target="5d2195bd80daf111-18" edge="1"><mxGeometry width="50" height="50" relative="1" as="geometry"><mxPoint x="-220" y="550" as="sourcePoint"/><mxPoint x="-170" y="500" as="targetPoint"/></mxGeometry></mxCell><mxCell id="1_HT6QxDU4kzS8ASd7at-16" value="" style="endArrow=none;html=1;entryX=0;entryY=0.5;entryDx=0;entryDy=0;exitX=1;exitY=0.5;exitDx=0;exitDy=0;labelBackgroundColor=#EEEEEE;strokeColor=#182E3E;fontColor=#1A1A1A;" parent="1" source="1_HT6QxDU4kzS8ASd7at-3" target="1_HT6QxDU4kzS8ASd7at-4" edge="1"><mxGeometry width="50" height="50" relative="1" as="geometry"><mxPoint x="-270" y="600" as="sourcePoint"/><mxPoint x="-220" y="550" as="targetPoint"/></mxGeometry></mxCell><mxCell id="1_HT6QxDU4kzS8ASd7at-22" value="&lt;p style=&quot;margin: 0px ; margin-top: 4px ; text-align: center&quot;&gt;&lt;b&gt;Employee&lt;/b&gt;&lt;/p&gt;&lt;hr size=&quot;1&quot;&gt;&lt;p style=&quot;margin: 0px ; margin-left: 4px&quot;&gt;- firstName&lt;br&gt;&lt;/p&gt;&lt;p style=&quot;margin: 0px ; margin-left: 4px&quot;&gt;- lastName&lt;/p&gt;&lt;p style=&quot;margin: 0px ; margin-left: 4px&quot;&gt;- dateOfBirth&lt;/p&gt;&lt;p style=&quot;margin: 0px ; margin-left: 4px&quot;&gt;&lt;br&gt;&lt;/p&gt;" style="verticalAlign=top;align=left;overflow=fill;fontSize=12;fontFamily=Helvetica;html=1;shadow=0;comic=0;labelBackgroundColor=none;strokeWidth=1;fillColor=#F5AB50;strokeColor=#909090;fontColor=#1A1A1A;" parent="1" vertex="1"><mxGeometry x="30" y="240" width="190" height="80" as="geometry"/></mxCell><mxCell id="2" value="" style="endArrow=none;html=1;fontColor=#1A1A1A;strokeColor=#182E3E;entryX=0.5;entryY=1;entryDx=0;entryDy=0;exitX=0.5;exitY=0;exitDx=0;exitDy=0;" parent="1" source="1_HT6QxDU4kzS8ASd7at-5" target="1_HT6QxDU4kzS8ASd7at-6" edge="1"><mxGeometry width="50" height="50" relative="1" as="geometry"><mxPoint x="240" y="620" as="sourcePoint"/><mxPoint x="290" y="570" as="targetPoint"/></mxGeometry></mxCell><mxCell id="3" value="&lt;p style=&quot;margin: 0px ; margin-top: 4px ; text-align: center&quot;&gt;&lt;b&gt;Airline&lt;/b&gt;&lt;/p&gt;&lt;p style=&quot;margin: 0px ; margin-top: 4px ; text-align: center&quot;&gt;&lt;b&gt;&lt;br&gt;&lt;/b&gt;&lt;/p&gt;" style="verticalAlign=top;align=left;overflow=fill;fontSize=12;fontFamily=Helvetica;html=1;shadow=0;comic=0;labelBackgroundColor=none;strokeWidth=1;fillColor=#F5AB50;strokeColor=#909090;fontColor=#1A1A1A;" parent="1" vertex="1"><mxGeometry x="-250" y="260" width="190" height="40" as="geometry"/></mxCell><mxCell id="4" value="&lt;p style=&quot;margin: 0px ; margin-top: 4px ; text-align: center&quot;&gt;&lt;b&gt;passengar&lt;/b&gt;&lt;/p&gt;&lt;hr size=&quot;1&quot;&gt;&lt;p style=&quot;margin: 0px ; margin-left: 4px&quot;&gt;- firstName&lt;br&gt;&lt;/p&gt;&lt;p style=&quot;margin: 0px ; margin-left: 4px&quot;&gt;- lastName&lt;/p&gt;&lt;p style=&quot;margin: 0px ; margin-left: 4px&quot;&gt;- dateOfBirth&lt;/p&gt;&lt;p style=&quot;margin: 0px ; margin-left: 4px&quot;&gt;- phoneNumber&lt;br&gt;&lt;/p&gt;&lt;p style=&quot;margin: 0px ; margin-left: 4px&quot;&gt;&lt;span&gt;- emailAddress&lt;/span&gt;&lt;/p&gt;&lt;p style=&quot;margin: 0px ; margin-left: 4px&quot;&gt;- nationality&lt;/p&gt;&lt;hr size=&quot;1&quot;&gt;&lt;p style=&quot;margin: 0px ; margin-left: 4px&quot;&gt;&lt;br&gt;&lt;/p&gt;" style="verticalAlign=top;align=left;overflow=fill;fontSize=12;fontFamily=Helvetica;html=1;shadow=0;comic=0;labelBackgroundColor=none;strokeWidth=1;fillColor=#F5AB50;strokeColor=#909090;fontColor=#1A1A1A;" vertex="1" parent="1"><mxGeometry x="447" y="221" width="190" height="137" as="geometry"/></mxCell><mxCell id="5" value="" style="endArrow=none;html=1;entryX=0.5;entryY=1;entryDx=0;entryDy=0;exitX=0.75;exitY=0;exitDx=0;exitDy=0;labelBackgroundColor=none;strokeColor=#182E3E;fontColor=#1A1A1A;" edge="1" parent="1" source="1_HT6QxDU4kzS8ASd7at-6" target="4"><mxGeometry width="50" height="50" relative="1" as="geometry"><mxPoint x="470" y="480" as="sourcePoint"/><mxPoint x="660" y="480" as="targetPoint"/></mxGeometry></mxCell><mxCell id="6" value="*." style="edgeLabel;html=1;align=center;verticalAlign=middle;resizable=0;points=[];labelBackgroundColor=none;fontSize=20;" vertex="1" connectable="0" parent="5"><mxGeometry x="-0.0831" y="1" relative="1" as="geometry"><mxPoint x="-77" y="1" as="offset"/></mxGeometry></mxCell><mxCell id="7" value="&lt;span style=&quot;&quot;&gt;.*&lt;/span&gt;" style="edgeLabel;html=1;align=center;verticalAlign=middle;resizable=0;points=[];fontSize=20;labelBackgroundColor=none;" vertex="1" connectable="0" parent="5"><mxGeometry x="0.2611" relative="1" as="geometry"><mxPoint x="60" as="offset"/></mxGeometry></mxCell></root></mxGraphModel></diagram></mxfile>